<?xml version="1.0" encoding="UTF-8" standalone="no"?>
<!-- Uploaded to: SVG Repo, www.svgrepo.com, Generator: SVG Repo Mixer Tools -->

<svg
   width="800px"
   height="800px"
   viewBox="0 0 128 128"
   aria-hidden="true"
   role="img"
   class="iconify iconify--noto"
   preserveAspectRatio="xMidYMid meet"
   version="1.1"
   id="svg30"
   sodipodi:docname="ant.svg"
   inkscape:version="1.2.2 (b0a8486541, 2022-12-01)"
   xmlns:inkscape="http://www.inkscape.org/namespaces/inkscape"
   xmlns:sodipodi="http://sodipodi.sourceforge.net/DTD/sodipodi-0.dtd"
   xmlns="http://www.w3.org/2000/svg"
   xmlns:svg="http://www.w3.org/2000/svg">
  <defs
     id="defs34" />
  <sodipodi:namedview
     id="namedview32"
     pagecolor="#ffffff"
     bordercolor="#666666"
     borderopacity="1.0"
     inkscape:showpageshadow="2"
     inkscape:pageopacity="0.0"
     inkscape:pagecheckerboard="0"
     inkscape:deskcolor="#d1d1d1"
     showgrid="false"
     inkscape:zoom="1.04875"
     inkscape:cx="606.91299"
     inkscape:cy="557.80691"
     inkscape:window-width="1920"
     inkscape:window-height="1014"
     inkscape:window-x="0"
     inkscape:window-y="29"
     inkscape:window-maximized="1"
     inkscape:current-layer="svg30" />
  <path
     d="m 97.080919,76.99 c 0,0 3.750001,3.47 4.970001,6.95 1.22,3.47 3.28,11.92 4.13,12.67 0.85,0.75 3.66,2.06 4.69,2.53 1.03,0.47 3.28,0.94 3.28,2.53 0,1.59 -2.06,1.6 -5.63,1.03 -3.57,-0.57 -4.88,-0.75 -5.54,-1.6 -0.66,-0.85 -4.320001,-14.17 -4.880001,-15.02 -0.56,-0.84 -1.6,-3.19 -4.79,-5.63 -3.19,-2.44 -6.85,-5.44 -6.85,-5.44 l 6.01,-3.75 z"
     fill="#868686"
     id="path2" />
  <path
     d="m 115.62092,44.94 c 0,0 1.08,-2.53 4.13,-1.74 2.68,0.7 4.13,4.74 3.38,6.62 -0.75,1.88 -2.86,2.72 -2.86,2.72 z"
     fill="#151413"
     id="path4" />
  <path
     d="m 113.18092,16.03 c 0.75,0.08 1.97,5.02 5.54,4.32 2.64,-0.52 2.13,-4.22 -1.22,-6.05 -3,-1.64 -4.93,-0.99 -6.76,-0.33 -2.7,0.97 -5.4,3.94 -6.71,7.41 -1.31,3.47 -2.87,7.83 -3.52,12.95 -0.660001,5.21 -0.28,5.4 -0.28,5.4 l 2.53,0.19 c 0,0 -0.47,-1.31 0.47,-6.99 0.53,-3.21 1.83,-7.25 3,-10.23 1.32,-3.33 4.04,-6.99 6.95,-6.67 z"
     fill="#5d6265"
     id="path6" />
  <path
     d="m 91.830919,19.51 c 0.69,-0.12 2.44,2.3 4.9,0.88 2.18,-1.26 1.15,-4.5 -2.09,-4.82 -2.07,-0.21 -4.68,1.28 -5.96,2.58 -1.97,2.02 -3.43,5.35 -4.08,8.73 -0.68,3.49 -0.6,6.76 0.84,11.5 1.55,5.07 3.38,7.18 3.38,7.18 l 1.97,-2.02 c 0,0 -1.36,-1.88 -2.82,-5.91 -1.06,-2.94 -1.69,-6.19 -0.99,-10 0.66,-3.53 2.88,-7.79 4.85,-8.12 z"
     fill="#5d6265"
     id="path8" />
  <path
     d="m 112.94092,40.95 c 5.14,2.4 11.8,10.19 10.61,19.15 -0.94,7.04 -6.1,14.36 -16.05,16.61 -9.950001,2.25 -16.050001,-0.94 -16.050001,-0.94 l -4.97,-0.75 -4.32,6.01 -12.86,0.09 -8.45,-3.47 c 0,0 -5.89,8.38 -7.83,11.33 -1.94,2.96 -8.38,8.17 -8.38,8.17 0,0 -1.74,1.3 -3.53,2.3 -1.69,0.94 -9.81,4.88 -17.2,5.23 -12.92,0.62 -16.81,-2.98 -17.63,-4.01 -0.4,-0.51 -0.83,-2.52 -1,-3.59 -0.13,-0.84 -1.51,-8.79 -0.47,-15.02 0.84,-5.07 3.57,-14.08 13.8,-23.09 10.23,-9.01 24.12,-11.26 32.85,-6.19 8.23,4.78 11.07,11.73 11.07,11.73 0,0 2.63,-6.96 9.76,-7.88 5.82,-0.75 8.35,2.25 8.35,2.25 0,0 -0.56,-12.67 12.2,-18.4 9.330001,-4.17 17.290001,-0.84 20.100001,0.47 z"
     fill="#5d6265"
     id="path10" />
  <path
     d="m 75.870919,58.78 c 2.81,0.76 3.94,3.85 2.91,5.73 -1.03,1.88 -2.98,2.65 -5.16,2.06 -2.82,-0.75 -3.94,-3.28 -3.28,-5.16 0.65,-1.87 3.09,-3.28 5.53,-2.63 z"
     fill="#afafae"
     id="path12" />
  <path
     d="m 51.660919,63.2 c -1.31,2.63 -5.21,2.7 -8.82,0.47 -3.94,-2.44 -4.13,-5.91 -2.72,-7.6 1.94,-2.33 5.91,-1.97 8.35,-0.38 2.44,1.59 4.9,4.08 3.19,7.51 z"
     fill="#afafae"
     id="path14" />
  <path
     d="m 108.25092,49.63 c 1.49,2.52 1.89,6.93 -1.88,8.59 -4.32,1.9 -6.990001,-1.2 -7.980001,-3.66 -0.94,-2.35 -1.09,-6.34 2.250001,-7.7 3.5,-1.42 6.13,0.28 7.61,2.77 z"
     fill="#0a0a0a"
     id="path16" />
  <path
     d="m 119.70092,62.02 c -0.13,1.32 0,2.16 0.75,2.67 0.93,0.64 1.67,0.32 1.67,0.32 0,0 1.27,-1.23 1.57,-3.7 0.17,-1.37 -0.05,-3.38 -0.05,-3.38 0,0 -3.7,1.7 -3.94,4.09 z"
     fill="#44484e"
     id="path18" />
  <path
     d="m 83.750919,68.5 c -0.63,0.21 0.42,6.55 -0.14,7.53 -0.56,0.99 -4.72,3.66 -10.42,2.96 -5.7,-0.7 -8.24,-4.26 -9.15,-6.26 -0.58,-1.26 -1.13,-3.31 -1.55,-3.38 -0.42,-0.07 -3.38,4.65 -5.42,7.18 -2.04,2.53 -3.31,4.58 -7.39,8.59 -4.08,4.01 -9.36,7.11 -9.36,7.11 0,0 1.1,1.39 1.99,2.49 l 2.11,2.58 c 0,0 6.42,-4.86 9.62,-8.97 3.12,-4.01 6.4,-8 6.9,-7.07 0.25,0.46 -1.89,3.4 -2.78,5.03 -1.27,2.32 -2.64,4.58 -3.17,5.81 -0.51,1.19 -2.69,6.77 -3.77,10.42 -0.7,2.39 -1.15,5.25 -1.34,5.42 -0.53,0.46 -3.87,3.73 -4.72,4.5 -0.84,0.77 -2.39,2.46 -1.27,3.66 1.13,1.2 3.59,-0.6 4.15,-1.02 0.56,-0.42 5.98,-3.98 6.62,-4.75 0.63,-0.77 1.56,-5.16 1.97,-6.83 0.46,-1.87 3.17,-8.31 3.59,-9.57 0.42,-1.27 2.96,-5.68 3.66,-6.65 1.09,-1.51 1.9,-3.52 3.59,-3.03 0.84,0.25 1.58,0.39 2.29,0.7 0.14,0.92 0.25,13.34 0.46,14.47 0.21,1.13 0.84,10.28 0.77,11.12 -0.07,0.84 -4.08,6.12 -4.58,6.76 -0.49,0.63 -0.63,1.9 0.21,2.6 0.84,0.7 3.17,0.28 3.8,-0.21 0.63,-0.49 4.79,-4.65 5.14,-5.84 0.35,-1.2 0.28,-12.32 0.28,-14.15 0,-1.83 -0.42,-14.08 -0.14,-14.64 0.42,-0.07 1.16,0 3.55,-0.49 1.37,-0.28 2.5,-0.95 2.92,-0.99 0.21,0.39 3.87,9.15 4.58,11.76 0.7,2.6 3.66,15.63 4.01,16.26 0.35,0.63 3.17,3.2 6.26,4.22 1.62,0.53 6.550001,1.76 7.530001,0.49 0.99,-1.27 -2.75,-3.8 -4.720001,-4.86 -1.97,-1.06 -4.29,-2.46 -4.58,-2.75 -0.28,-0.28 -2.46,-12.88 -2.75,-14.36 -0.29,-1.48 -5,-12.67 -4.93,-13.16 2.18,-1.9 4.01,-5.28 4.01,-5.28 0,0 -2.71,-1.06 -4.68,-2.89 -1.55,-1.5 -3.15,-4.51 -3.15,-4.51 z"
     fill="#4d4d4d"
     id="path20" />
  <path
     d="m 37.130919,94.24 c 0,0 1.35,1.82 2.21,2.89 1.1,1.36 2.09,2.18 2.09,2.18 0,0 -4.76,2.33 -7.61,3.35 -4.42,1.57 -7.13,1.74 -7.13,1.74 0,0 -1.35,-1.6 -2.2,-2.63 -1.13,-1.36 -2.06,-2.82 -2.06,-2.82 0,0 4.8,-0.58 8.17,-1.74 4.52,-1.54 6.53,-2.97 6.53,-2.97 z"
     fill="#4d4d4d"
     id="path22" />
  <path
     d="m 18.260919,99.54 c 0,0 1.27,1.88 2.16,3.15 0.7,1 1.74,2.02 1.74,2.02 0,0 -6.81,0.21 -10.45,-0.95 -2,-0.64 -4.45,-1.72 -5.34,-2.89 -0.65,-0.84 -1.17,-4.36 -1.17,-4.36 0,0 2.18,2.39 6.57,2.86 3.27,0.36 6.49,0.17 6.49,0.17 z"
     fill="#4d4d4d"
     id="path24" />
  <path
     d="m 22.420919,98.95 c 0,0 -0.45,0.06 -1.93,0.29 -2.03,0.31 -2.27,0.26 -2.27,0.26 0,0 -4.53,-7.64 -6.69,-14.11 -2.23,-6.7 -2.46,-14.92 -2.46,-14.92 0,0 1.2,-1.97 1.67,-2.67 0.47,-0.7 1.64,-2.21 1.64,-2.21 0,0 0.76,11.57 3.1,18.82 2.79,8.66 6.94,14.54 6.94,14.54 z"
     fill="#838383"
     id="path26" />
  <path
     d="m 40.320919,92.22 c 0,0 -6.86,-9.87 -9.22,-16.82 -1.06,-3.12 -2.57,-9.4 -2.96,-12.07 -0.79,-5.49 -0.28,-10.31 -0.28,-10.31 0,0 -1.03,0.37 -2.29,1.06 -0.77,0.42 -1.69,1.06 -1.69,1.06 0,0 -0.66,3.81 0.39,9.57 0.81,4.47 1.96,8.91 3.41,13.02 2.22,6.26 9.42,16.54 9.42,16.54 z"
     fill="#838383"
     id="path28" />
</svg>
