<?xml version="1.0" encoding="UTF-8" standalone="no"?>
<!-- Uploaded to: SVG Repo, www.svgrepo.com, Generator: SVG Repo Mixer Tools -->

<svg
   width="701.5625"
   height="348.4375"
   viewBox="0 0 898 446"
   class="icon"
   version="1.1"
   id="svg12"
   sodipodi:docname="anteater.svg"
   inkscape:version="1.2.2 (b0a8486541, 2022-12-01)"
   xmlns:inkscape="http://www.inkscape.org/namespaces/inkscape"
   xmlns:sodipodi="http://sodipodi.sourceforge.net/DTD/sodipodi-0.dtd"
   xmlns="http://www.w3.org/2000/svg"
   xmlns:svg="http://www.w3.org/2000/svg">
  <defs
     id="defs16" />
  <sodipodi:namedview
     id="namedview14"
     pagecolor="#ffffff"
     bordercolor="#666666"
     borderopacity="1.0"
     inkscape:showpageshadow="2"
     inkscape:pageopacity="0.0"
     inkscape:pagecheckerboard="0"
     inkscape:deskcolor="#d1d1d1"
     showgrid="false"
     inkscape:zoom="1.04875"
     inkscape:cx="350.41716"
     inkscape:cy="206.91299"
     inkscape:window-width="1920"
     inkscape:window-height="1014"
     inkscape:window-x="0"
     inkscape:window-y="29"
     inkscape:window-maximized="1"
     inkscape:current-layer="svg12" />
  <path
     d="m 896.7,341.4 c 0.9,2.8 1.3,5.7 1.3,8.6 0,16 -13,29 -29,29 h -26.2 c -10.7,0 -20.6,-5.7 -26.1,-14.9 -0.3,-0.5 -0.6,-1.1 -0.9,-1.6 -30,-60.4 -90.4,-97.9 -157.8,-97.9 h -27.6 c 0.4,1.6 0.8,3.2 1.3,4.8 7.5,30.2 11.2,60.6 11.2,90.5 0,17.1 -1.3,33.9 -3.7,50.2 h 9.8 c 9.9,0 17.9,8 17.9,17.9 0,9.9 -8,17.9 -17.9,17.9 h -95.4 c -8.6,0 -16,-6.1 -17.6,-14.5 -1.1,-5.9 -2.5,-12.2 -4.1,-18.6 -8.5,-34.2 -21.8,-66.3 -39,-94.4 H 370.4 c -16.4,21 -38.7,36.6 -63.8,45 l -3.6,46.8 h 12.1 c 9.9,0 17.9,8 17.9,17.9 0,9.9 -8,17.9 -17.9,17.9 H 209.3 c -9.2,0 -16.9,-7 -17.8,-16.2 -3,-32.2 -7.1,-64.2 -12.1,-95 -4.9,-30 -10.8,-59.4 -17.4,-87.4 -0.3,-1.4 -0.5,-2.8 -0.5,-4.1 0,0 0.1,-34.3 0.4,-38.6 h -21.6 c -30.5,0 -55.4,24.9 -55.4,55.4 0,2.2 -0.3,3.4 -1.1,6.2 -3,20.3 -20.6,35.9 -41.7,35.9 C 18.9,302.2 0,283.3 0,260 V 208.6 C 0,106.9 82.8,24.1 184.5,24.1 h 67.1 c 16.3,0 32.1,-2.9 47.1,-8.7 C 323.6,5.4 350.8,0 379.2,0 l 71.7,0.1 h 0.3 c 56.5,0.8 111.5,11.5 163.7,31.7 4.7,-3 9.5,-5.6 14.5,-7.5 17.8,-6.9 35.6,-5.5 49,3.8 13.3,9.3 20.8,25.7 20.3,44.7 0,0.5 -0.1,1.1 -0.1,1.6 11.8,7.6 23.3,15.7 34.4,24.3 78.4,61.2 136.6,147.4 163.7,242.7 z"
     fill="#663333"
     id="path2" />
  <path
     d="m 420.2,95.8 c 0,-9.9 -8,-17.9 -17.9,-17.9 H 379 c -77,0 -139.6,62.6 -139.6,139.6 0,9.9 8,17.9 17.9,17.9 9.9,0 17.9,-8 17.9,-17.9 0,-57.2 46.6,-103.8 103.8,-103.8 h 23.3 c 9.9,0 17.9,-8.1 17.9,-17.9 z"
     fill="#663333"
     id="path4" />
  <path
     d="M 860,343.3 H 846.2 C 828.9,310 803.1,281.8 771.4,261.7 737.5,240.2 698.4,228.9 658.1,228.9 h -51.4 c -1.9,0 -3.8,0.3 -5.6,0.9 -9.4,3.1 -14.5,13.2 -11.4,22.6 2.7,8.3 5.2,17 7.4,25.7 6.8,27.4 10.2,54.9 10.2,81.9 0,17.2 -1.4,34.1 -4.2,50.2 h -34.9 c -0.5,-2 -0.9,-4 -1.4,-6 -15.6,-63 -46.5,-120.1 -87.1,-160.9 -7,-7 -18.3,-7 -25.3,-0.1 -7,7 -7,18.3 -0.1,25.3 4.5,4.5 8.8,9.2 12.9,14.1 h -76.8 c 6.5,-17.4 9.5,-36.2 8.4,-55.1 -0.6,-9.9 -8.9,-17.4 -18.9,-16.8 -9.9,0.6 -17.4,9 -16.8,18.9 2.8,48.7 -29.7,91.8 -77.3,102.5 -7.5,1.6 -13.4,8 -14,16.1 l -4.9,62 h -41.5 c -2.9,-27.5 -6.5,-54.8 -10.8,-81.2 -4.9,-30.1 -10.8,-59.6 -17.5,-87.9 v -23.5 c 0,-100.2 81.5,-181.8 181.8,-181.8 l 71.2,0.1 h 0.2 c 46.9,0.6 92.7,8.7 136.5,23.9 -4.2,7.9 -2,17.8 5.5,23 8.1,5.6 19.2,3.7 24.9,-4.4 6.8,-9.7 15.8,-17.2 24.7,-20.7 3.1,-1.2 10.7,-3.6 15.5,-0.2 4.8,3.4 5.1,11.4 5.1,14.6 -0.2,9.6 -4.2,20.6 -11,30.3 -5.7,8.1 -3.7,19.2 4.4,24.9 3.1,2.2 6.7,3.2 10.2,3.2 5.6,0 11.2,-2.6 14.6,-7.6 2.8,-4 5.2,-8 7.4,-12.2 7.7,5.2 15.2,10.7 22.5,16.3 70.7,54.8 123.5,131.4 149.4,216.3 z"
     fill="#ffcc66"
     id="path6" />
  <path
     d="m 694.1,145 c 12.3,0 22.3,10 22.3,22.3 0,12.3 -10,22.3 -22.3,22.3 -12.3,0 -22.3,-10 -22.3,-22.3 0,-12.4 10,-22.3 22.3,-22.3 z M 402.3,77.9 c 9.9,0 17.9,8 17.9,17.9 0,9.9 -8,17.9 -17.9,17.9 H 379 c -57.2,0 -103.8,46.6 -103.8,103.8 0,9.9 -8,17.9 -17.9,17.9 -9.9,0 -17.9,-8 -17.9,-17.9 0,-77 62.6,-139.6 139.6,-139.6 z"
     fill="#663333"
     id="path8" />
  <path
     d="m 184.4,59.8 h 44.9 C 198.8,88.7 176.7,126.4 167,168.7 h -27 c -48.3,0.2 -87.8,38.1 -90.6,85.7 -0.6,1.7 -0.8,3.5 -0.8,5.5 0,3.5 -2.9,6.4 -6.4,6.4 -3.5,0 -6.4,-2.9 -6.4,-6.4 V 208.6 C 35.7,126.5 102.4,59.8 184.4,59.8 Z"
     fill="#ffcc66"
     id="path10" />
</svg>
