<?xml version="1.0" encoding="UTF-8" standalone="no"?>
<!-- Uploaded to: SVG Repo, www.svgrepo.com, Generator: SVG Repo Mixer Tools -->

<svg
   height="800px"
   width="800px"
   version="1.1"
   id="Layer_1"
   viewBox="0 0 511.999 511.999"
   xml:space="preserve"
   sodipodi:docname="parrot.svg"
   inkscape:version="1.2.2 (b0a8486541, 2022-12-01)"
   xmlns:inkscape="http://www.inkscape.org/namespaces/inkscape"
   xmlns:sodipodi="http://sodipodi.sourceforge.net/DTD/sodipodi-0.dtd"
   xmlns="http://www.w3.org/2000/svg"
   xmlns:svg="http://www.w3.org/2000/svg"><defs
   id="defs21" /><sodipodi:namedview
   id="namedview19"
   pagecolor="#ffffff"
   bordercolor="#666666"
   borderopacity="1.0"
   inkscape:showpageshadow="2"
   inkscape:pageopacity="0.0"
   inkscape:pagecheckerboard="0"
   inkscape:deskcolor="#d1d1d1"
   showgrid="false"
   inkscape:zoom="1.04875"
   inkscape:cx="479.14184"
   inkscape:cy="291.77592"
   inkscape:window-width="1920"
   inkscape:window-height="1014"
   inkscape:window-x="0"
   inkscape:window-y="29"
   inkscape:window-maximized="1"
   inkscape:current-layer="Layer_1" />
<path
   style="fill:#f0c419"
   d="m 155.54177,126.499 v 9.098 h 20.383 60.217 v -88.37 c -40.723,5.199 -80.6,38.71 -80.6,79.272 z"
   id="path2" />
<path
   style="fill:#f0df9e"
   d="m 236.14177,135.598 h -60.217 c 0,27.006 33.147,48.922 60.217,49.157 z"
   id="path4" />
<path
   style="fill:#df4d60"
   d="m 236.14177,201.698 c -18.84,22.569 -30.178,51.622 -30.178,83.333 0,58.052 38.012,107.231 90.502,123.992 1.629,-6.173 3.922,-12.003 6.794,-17.372 -17.693,-19.644 -28.721,-47.432 -28.721,-78.242 0,-47.025 25.699,-87.009 61.557,-101.755 v -26.899 -29.857 -19.301 -28.421 c 0,-13.096 -4.147,-25.216 -11.199,-35.119 -7.234,-10.17 -17.522,-18.015 -29.535,-22.184 -6.237,-2.175 -12.946,-3.354 -19.933,-3.354 h -28.421 c -3.612,0 -7.244,0.236 -10.867,0.707 v 88.37 49.157 l 0.001,16.945 z"
   id="path6" />
<path
   style="fill:#b5e06c"
   d="m 336.09677,211.654 c -35.858,14.746 -61.557,54.73 -61.557,101.755 0,30.81 11.027,58.599 28.721,78.242 9.313,10.342 20.469,18.422 32.836,23.512 z"
   id="path8" />
<path
   style="fill:#8fb84a"
   d="m 296.46577,409.023 c -1.854,6.966 -2.851,14.371 -2.851,22.055 0,32.439 17.736,60.035 42.481,70.205 v -86.119 c -12.367,-5.09 -23.523,-13.171 -32.836,-23.512 -2.871,5.369 -5.165,11.198 -6.794,17.371 z"
   id="path10" />
<path
   d="m 310.12577,227.481 c 4.414,3.944 4.797,10.718 0.853,15.132 -1.209,1.354 -2.398,2.769 -3.535,4.206 -2.115,2.675 -5.248,4.069 -8.414,4.069 -2.328,0 -4.672,-0.756 -6.64,-2.312 -4.642,-3.672 -5.429,-10.41 -1.759,-15.053 1.402,-1.771 2.869,-3.518 4.362,-5.189 3.944,-4.412 10.719,-4.795 15.133,-0.853 z"
   id="path12" />
<path
   d="m 270.70377,113.918 c -5.919,0 -10.717,-4.798 -10.717,-10.717 v -6.955 c 0,-5.918 4.798,-10.717 10.717,-10.717 5.919,0 10.717,4.799 10.717,10.717 v 6.955 c -10e-4,5.919 -4.799,10.717 -10.717,10.717 z"
   id="path14" />
<path
   d="m 338.53877,73.811 c 5.428,10.225 8.275,21.595 8.275,33.365 v 47.721 56.756 203.51 86.119 c 0,3.574 -1.782,6.912 -4.751,8.902 -1.791,1.2 -3.872,1.814 -5.967,1.814 -1.377,0 -2.762,-0.266 -4.072,-0.805 -29.382,-12.077 -49.124,-44.273 -49.124,-80.117 0,-5.102 0.4,-10.163 1.179,-15.128 -24.342,-9.645 -45.35,-25.76 -61.152,-47.053 -18.107,-24.399 -27.678,-53.4 -27.678,-83.867 0,-31.606 10.693,-62.382 30.178,-87.119 v -3.404 c -26.166,-4.394 -52.752,-23.461 -58.896,-48.194 h -10.988 c -5.919,0 -10.717,-4.798 -10.717,-10.717 v -9.098 c 0,-48.438 46.696,-84.38 89.934,-89.899 0.08,-0.011 0.162,-0.017 0.243,-0.027 0.024,-0.002 0.048,-0.005 0.072,-0.009 3.961,-0.503 7.973,-0.761 11.935,-0.761 h 28.421 c 5.77,0 11.456,0.694 16.979,2.045 l 36.26,-34.854 c 4.266,-4.101 11.051,-3.968 15.152,0.299 4.102,4.266 3.968,11.051 -0.299,15.152 l -29.689,28.541 c 4.265,2.719 8.22,5.897 11.825,9.478 l 23.373,-22.466 c 4.267,-4.102 11.051,-3.967 15.153,0.299 4.101,4.266 3.967,11.051 -0.299,15.152 z m -13.159,408.121 v -59.901 c -6.394,-3.217 -12.442,-7.152 -18.108,-11.78 -0.147,0.511 -0.314,1.012 -0.45,1.528 -1.653,6.207 -2.489,12.7 -2.489,19.299 0,20.363 8.04,39.038 21.047,50.854 z m -99.954,-309.289 v -26.329 h -36.208 c 5.924,12.415 21.191,22.708 36.208,26.329 z m -59.142,-47.762 h 9.642 49.5 V 60.367 c -29.898,8.517 -58.178,33.778 -59.142,64.514 z m 80.725,-67.643 c -0.049,0 -0.1,0.002 -0.15,0.002 v 118.838 c 1.607,-1.319 3.234,-2.614 4.899,-3.862 4.736,-3.55 11.453,-2.589 15.003,2.147 3.55,4.736 2.59,11.453 -2.145,15.003 -7.475,5.604 -14.286,12.064 -20.246,19.201 -17.855,21.389 -27.689,48.545 -27.689,76.466 0,48.642 28.99,91.651 73.137,110.122 0.257,-0.634 0.518,-1.268 0.789,-1.895 -17.316,-21.846 -26.783,-49.91 -26.783,-79.85 0,-18.637 3.638,-36.475 10.813,-53.021 2.356,-5.43 8.668,-7.923 14.096,-5.567 5.43,2.354 7.923,8.665 5.568,14.096 -6,13.837 -9.043,28.806 -9.043,44.492 0,26.844 9.465,52.749 25.968,71.071 4.371,4.855 9.103,9.074 14.156,12.632 V 211.654 154.898 107.177 c 0,-10.446 -3.185,-20.439 -9.215,-28.907 -6.074,-8.541 -14.484,-14.859 -24.332,-18.276 -5.244,-1.829 -10.762,-2.756 -16.404,-2.756 h -28.422 z"
   id="path16" />
</svg>
