<?xml version="1.0" encoding="UTF-8" standalone="no"?>
<!-- Uploaded to: SVG Repo, www.svgrepo.com, Generator: SVG Repo Mixer Tools -->

<svg
   width="800px"
   height="800px"
   viewBox="0 0 64 64"
   version="1.1"
   id="svg196"
   sodipodi:docname="va1.svg"
   inkscape:version="1.2.2 (b0a8486541, 2022-12-01)"
   xmlns:inkscape="http://www.inkscape.org/namespaces/inkscape"
   xmlns:sodipodi="http://sodipodi.sourceforge.net/DTD/sodipodi-0.dtd"
   xmlns="http://www.w3.org/2000/svg"
   xmlns:svg="http://www.w3.org/2000/svg">
  <defs
     id="defs200" />
  <sodipodi:namedview
     id="namedview198"
     pagecolor="#ffffff"
     bordercolor="#666666"
     borderopacity="1.0"
     inkscape:showpageshadow="2"
     inkscape:pageopacity="0.0"
     inkscape:pagecheckerboard="0"
     inkscape:deskcolor="#d1d1d1"
     showgrid="false"
     inkscape:zoom="1.04875"
     inkscape:cx="193.08701"
     inkscape:cy="399.52324"
     inkscape:window-width="1920"
     inkscape:window-height="1014"
     inkscape:window-x="0"
     inkscape:window-y="29"
     inkscape:window-maximized="1"
     inkscape:current-layer="svg196" />
  <title
     id="title138">Virtual Reality icons</title>
  <path
     d="M32,19c-7,0-12.87-2.51-15.07-6A5.6,5.6,0,0,0,16,16c0,5,7.16,9,16,9s16-4,16-9a5.6,5.6,0,0,0-.93-3C44.87,16.49,39,19,32,19Z"
     fill="#c8f1fb"
     id="path140"
     style="fill:#196b80;fill-opacity:1" />
  <ellipse
     cx="32"
     cy="10"
     rx="16"
     ry="9"
     fill="none"
     stroke="#47caf3"
     stroke-miterlimit="10"
     stroke-width="2"
     id="ellipse142" />
  <path
     d="M16.13,7.8L14,34.14a42.3,42.3,0,0,0,0,10.31,37.22,37.22,0,0,0,4.81,15.08C21.69,61.62,26.52,63,32,63s10.27-1.36,13.16-3.45a37.38,37.38,0,0,0,4.91-15.1,42.3,42.3,0,0,0,0-10.31L47.93,7.8"
     fill="none"
     stroke="#47caf3"
     stroke-miterlimit="10"
     stroke-width="2"
     id="path144" />
  <line
     x1="14"
     y1="38"
     x2="50"
     y2="38"
     fill="none"
     stroke="#47caf3"
     stroke-miterlimit="10"
     stroke-width="2"
     id="line146" />
  <circle
     cx="32"
     cy="7"
     r="1"
     fill="#47caf3"
     id="circle148" />
  <circle
     cx="32"
     cy="12"
     r="1"
     fill="#47caf3"
     id="circle150" />
  <circle
     cx="28"
     cy="9"
     r="1"
     fill="#47caf3"
     id="circle152" />
  <circle
     cx="36"
     cy="9"
     r="1"
     fill="#47caf3"
     id="circle154" />
  <circle
     cx="19.5"
     cy="47"
     r="1"
     fill="#47caf3"
     id="circle156" />
  <circle
     cx="24.5"
     cy="47"
     r="1"
     fill="#47caf3"
     id="circle158" />
  <circle
     cx="29.5"
     cy="47"
     r="1"
     fill="#47caf3"
     id="circle160" />
  <circle
     cx="34.5"
     cy="47"
     r="1"
     fill="#47caf3"
     id="circle162" />
  <circle
     cx="39.5"
     cy="47"
     r="1"
     fill="#47caf3"
     id="circle164" />
  <circle
     cx="44.5"
     cy="47"
     r="1"
     fill="#47caf3"
     id="circle166" />
  <circle
     cx="22.5"
     cy="43"
     r="1"
     fill="#47caf3"
     id="circle168" />
  <circle
     cx="27.5"
     cy="43"
     r="1"
     fill="#47caf3"
     id="circle170" />
  <circle
     cx="32.5"
     cy="43"
     r="1"
     fill="#47caf3"
     id="circle172" />
  <circle
     cx="37.5"
     cy="43"
     r="1"
     fill="#47caf3"
     id="circle174" />
  <circle
     cx="42.5"
     cy="43"
     r="1"
     fill="#47caf3"
     id="circle176" />
  <circle
     cx="24.5"
     cy="55"
     r="1"
     fill="#47caf3"
     id="circle178" />
  <circle
     cx="29.5"
     cy="55"
     r="1"
     fill="#47caf3"
     id="circle180" />
  <circle
     cx="34.5"
     cy="55"
     r="1"
     fill="#47caf3"
     id="circle182" />
  <circle
     cx="39.5"
     cy="55"
     r="1"
     fill="#47caf3"
     id="circle184" />
  <circle
     cx="22.5"
     cy="51"
     r="1"
     fill="#47caf3"
     id="circle186" />
  <circle
     cx="27.5"
     cy="51"
     r="1"
     fill="#47caf3"
     id="circle188" />
  <circle
     cx="32.5"
     cy="51"
     r="1"
     fill="#47caf3"
     id="circle190" />
  <circle
     cx="37.5"
     cy="51"
     r="1"
     fill="#47caf3"
     id="circle192" />
  <circle
     cx="42.5"
     cy="51"
     r="1"
     fill="#47caf3"
     id="circle194" />
</svg>
