<?xml version="1.0" encoding="UTF-8" standalone="no"?>
<!-- Uploaded to: SVG Repo, www.svgrepo.com, Generator: SVG Repo Mixer Tools -->

<svg
   width="800px"
   height="800px"
   viewBox="0 0 64 64"
   version="1.1"
   id="svg218"
   sodipodi:docname="va2.svg"
   inkscape:version="1.2.2 (b0a8486541, 2022-12-01)"
   xmlns:inkscape="http://www.inkscape.org/namespaces/inkscape"
   xmlns:sodipodi="http://sodipodi.sourceforge.net/DTD/sodipodi-0.dtd"
   xmlns="http://www.w3.org/2000/svg"
   xmlns:svg="http://www.w3.org/2000/svg">
  <defs
     id="defs222" />
  <sodipodi:namedview
     id="namedview220"
     pagecolor="#ffffff"
     bordercolor="#666666"
     borderopacity="1.0"
     inkscape:showpageshadow="2"
     inkscape:pageopacity="0.0"
     inkscape:pagecheckerboard="0"
     inkscape:deskcolor="#d1d1d1"
     showgrid="false"
     inkscape:zoom="1.04875"
     inkscape:cx="193.08701"
     inkscape:cy="399.52324"
     inkscape:window-width="1920"
     inkscape:window-height="1014"
     inkscape:window-x="0"
     inkscape:window-y="29"
     inkscape:window-maximized="1"
     inkscape:current-layer="svg218" />
  <title
     id="title202">Virtual Reality icons</title>
  <path
     d="M24,54.5A23,23,0,0,0,46.74,35,23,23,0,1,1,1,38.5,23.18,23.18,0,0,1,1.26,35,23,23,0,0,0,24,54.5Z"
     fill="#c8f1fb"
     id="path204"
     style="fill:#196b80;fill-opacity:1" />
  <circle
     cx="24"
     cy="39"
     r="23"
     fill="none"
     stroke="#47caf3"
     stroke-miterlimit="10"
     stroke-width="2"
     id="circle206" />
  <circle
     cx="15"
     cy="39"
     r="1"
     fill="#47caf3"
     id="circle208" />
  <circle
     cx="21"
     cy="39"
     r="1"
     fill="#47caf3"
     id="circle210" />
  <circle
     cx="27"
     cy="39"
     r="1"
     fill="#47caf3"
     id="circle212" />
  <circle
     cx="33"
     cy="39"
     r="1"
     fill="#47caf3"
     id="circle214" />
  <path
     d="M64,56H60a6,6,0,0,1-6-6V16.42A15.28,15.28,0,0,0,39.73,1,15,15,0,0,0,24,16"
     fill="none"
     stroke="#47caf3"
     stroke-miterlimit="10"
     stroke-width="2"
     id="path216" />
</svg>
