<?xml version="1.0" encoding="UTF-8" standalone="no"?>
<svg
   viewBox="0 0 297666.81 215559.09"
   version="1.1"
   id="svg181"
   width="297666.81"
   height="215559.09"
   xmlns:xlink="http://www.w3.org/1999/xlink"
   xmlns="http://www.w3.org/2000/svg"
   xmlns:svg="http://www.w3.org/2000/svg">
  <defs
     id="defs91">
    <linearGradient
       id="linear-gradient"
       x1="203.78"
       y1="336.20999"
       x2="291.91"
       y2="234.82001"
       gradientUnits="userSpaceOnUse">
      <stop
         offset="0"
         stop-color="#231f20"
         id="stop7" />
      <stop
         offset="0.11"
         stop-color="#282425"
         id="stop9" />
      <stop
         offset="0.25"
         stop-color="#363233"
         id="stop11" />
      <stop
         offset="0.39"
         stop-color="#4d4a4a"
         id="stop13" />
      <stop
         offset="0.54"
         stop-color="#6d6a6b"
         id="stop15" />
      <stop
         offset="0.69"
         stop-color="#979595"
         id="stop17" />
      <stop
         offset="0.85"
         stop-color="#c9c8c8"
         id="stop19" />
      <stop
         offset="1"
         stop-color="#fff"
         id="stop21" />
    </linearGradient>
    <linearGradient
       id="linear-gradient-2"
       x1="376.17001"
       y1="508.92001"
       x2="506.14001"
       y2="359.41"
       gradientUnits="userSpaceOnUse">
      <stop
         offset="0"
         stop-color="#231f20"
         id="stop24" />
      <stop
         offset="0.33"
         stop-color="#423e3f"
         stop-opacity="0.86"
         id="stop26" />
      <stop
         offset="0.71"
         stop-color="#9a9899"
         stop-opacity="0.46"
         id="stop28" />
      <stop
         offset="1"
         stop-color="#fff"
         stop-opacity="0"
         id="stop30" />
    </linearGradient>
    <linearGradient
       id="linear-gradient-3"
       x1="89.279999"
       y1="184.67999"
       x2="306.95001"
       y2="263.91"
       gradientUnits="userSpaceOnUse">
      <stop
         offset="0"
         stop-color="#fcd3c1"
         id="stop33" />
      <stop
         offset="0.29"
         stop-color="#d71920"
         id="stop35" />
      <stop
         offset="0.69"
         stop-color="#b11116"
         id="stop37" />
      <stop
         offset="1"
         stop-color="#790000"
         id="stop39" />
    </linearGradient>
    <linearGradient
       id="linear-gradient-4"
       x1="232.86"
       y1="315.19"
       x2="232.86"
       y2="143.38"
       gradientUnits="userSpaceOnUse">
      <stop
         offset="0"
         stop-color="#d71920"
         id="stop42" />
      <stop
         offset="1"
         stop-color="#790000"
         id="stop44" />
    </linearGradient>
    <linearGradient
       id="linear-gradient-5"
       x1="143.31"
       y1="327.51999"
       x2="143.31"
       y2="202.27"
       xlink:href="#linear-gradient-4" />
    <linearGradient
       id="linear-gradient-6"
       x1="136.38"
       y1="235.64"
       x2="155.28"
       y2="235.64"
       gradientUnits="userSpaceOnUse">
      <stop
         offset="0"
         stop-color="#939598"
         id="stop48" />
      <stop
         offset="0.01"
         stop-color="#95979a"
         id="stop50" />
      <stop
         offset="0.12"
         stop-color="#b6b7b9"
         id="stop52" />
      <stop
         offset="0.25"
         stop-color="#d0d1d2"
         id="stop54" />
      <stop
         offset="0.38"
         stop-color="#e5e6e6"
         id="stop56" />
      <stop
         offset="0.53"
         stop-color="#f4f4f4"
         id="stop58" />
      <stop
         offset="0.71"
         stop-color="#fcfcfc"
         id="stop60" />
      <stop
         offset="1"
         stop-color="#fff"
         id="stop62" />
    </linearGradient>
    <linearGradient
       id="linear-gradient-7"
       x1="128.19"
       y1="286.23001"
       x2="147.09"
       y2="286.23001"
       xlink:href="#linear-gradient-6" />
    <linearGradient
       id="linear-gradient-8"
       x1="188.97"
       y1="215.53"
       x2="213.42999"
       y2="215.53"
       xlink:href="#linear-gradient-6" />
    <linearGradient
       id="linear-gradient-9"
       x1="236.78999"
       y1="184.28999"
       x2="261.25"
       y2="184.28999"
       xlink:href="#linear-gradient-6" />
    <linearGradient
       id="linear-gradient-10"
       x1="202.07001"
       y1="244.31"
       x2="226.53"
       y2="244.31"
       xlink:href="#linear-gradient-6" />
    <linearGradient
       id="linear-gradient-11"
       x1="249.02"
       y1="212.67"
       x2="273.48001"
       y2="212.67"
       xlink:href="#linear-gradient-6" />
    <linearGradient
       id="linear-gradient-12"
       x1="262.17999"
       y1="241.36"
       x2="286.64001"
       y2="241.36"
       xlink:href="#linear-gradient-6" />
    <linearGradient
       id="linear-gradient-13"
       x1="215.22"
       y1="273.29999"
       x2="239.67999"
       y2="273.29999"
       xlink:href="#linear-gradient-6" />
    <linearGradient
       id="linear-gradient-14"
       x1="193.78"
       y1="148.99001"
       x2="221.22"
       y2="148.99001"
       xlink:href="#linear-gradient-6" />
    <linearGradient
       id="linear-gradient-15"
       x1="146.7"
       y1="178.25999"
       x2="174.14"
       y2="178.25999"
       xlink:href="#linear-gradient-6" />
    <linearGradient
       id="linear-gradient-16"
       x1="112.18"
       y1="179.66"
       x2="139.63"
       y2="179.66"
       xlink:href="#linear-gradient-6" />
    <linearGradient
       id="linear-gradient-17"
       x1="158.27"
       y1="151.33"
       x2="185.71001"
       y2="151.33"
       xlink:href="#linear-gradient-6" />
    <linearGradient
       id="linear-gradient-18"
       x1="256.16"
       y1="283.85999"
       x2="498.32999"
       y2="391.67999"
       gradientUnits="userSpaceOnUse">
      <stop
         offset="0"
         stop-color="#f69679"
         id="stop76" />
      <stop
         offset="0.14"
         stop-color="#d71920"
         id="stop78" />
      <stop
         offset="0.69"
         stop-color="#b11116"
         id="stop80" />
      <stop
         offset="1"
         stop-color="#790000"
         id="stop82" />
    </linearGradient>
    <linearGradient
       id="linear-gradient-19"
       x1="508.94"
       y1="359.64999"
       x2="417.48999"
       y2="359.64999"
       xlink:href="#linear-gradient-4" />
    <linearGradient
       id="linear-gradient-20"
       x1="340.47"
       y1="478.91"
       x2="340.47"
       y2="376.95001"
       xlink:href="#linear-gradient-4" />
    <linearGradient
       id="linear-gradient-21"
       x1="455.14999"
       y1="378.85999"
       x2="474.07999"
       y2="346.07001"
       xlink:href="#linear-gradient-6" />
    <linearGradient
       id="linear-gradient-22"
       x1="365.48001"
       y1="424.98001"
       x2="373.07999"
       y2="413.70999"
       xlink:href="#linear-gradient-6" />
    <linearGradient
       id="linear-gradient-23"
       x1="340.29001"
       y1="433.16"
       x2="345.39001"
       y2="422.70999"
       xlink:href="#linear-gradient-6" />
    <linearGradient
       id="linear-gradient-24"
       x1="315.45001"
       y1="442.39999"
       x2="321.64999"
       y2="431.67001"
       xlink:href="#linear-gradient-6" />
    <linearGradient
       xlink:href="#linear-gradient-4"
       id="linearGradient1408"
       gradientUnits="userSpaceOnUse"
       x1="232.86"
       y1="315.19"
       x2="232.86"
       y2="143.38" />
    <linearGradient
       xlink:href="#linear-gradient-6"
       id="linearGradient1410"
       gradientUnits="userSpaceOnUse"
       x1="136.38"
       y1="235.64"
       x2="155.28"
       y2="235.64" />
  </defs>
  <title
     id="title93">red-vector-dice</title>
  <g
     id="Dice"
     transform="translate(-50520.797,-79492.383)">
    <polygon
       points="193.78,327.52 262.18,326.46 307.12,248.04 213.43,267.68 "
       fill-opacity="0.6"
       fill="url(#linear-gradient)"
       id="polygon98"
       style="fill:url(#linear-gradient)" />
    <path
       d="M 308.69,450.26 443.41,480.55 553.89,437 c 0,0 52.25,-22 -38,-51 -84.76,-27.19 -182.7,24.83 -207.2,64.26 z"
       fill="url(#linear-gradient-2)"
       id="path100"
       style="fill:url(#linear-gradient-2)" />
    <path
       d="M 119.32,291.7 83.66,217.91 c 0,0 -5.8,-20.32 9.12,-30.27 14.92,-9.95 71.73,-42.08 71.73,-42.08 A 125.3,125.3 0 0 1 206,132.91 c 0,0 26.16,-3.73 35.26,-2.9 9.1,0.83 23.63,5.39 31.7,20.73 8.07,15.34 30.62,73.38 30.62,73.38 0,0 12.78,35.25 -2,48.1 -14.78,12.85 -71.14,45.48 -71.14,45.48 0,0 -20.74,15.3 -52.25,8.3 -31.51,-7 -41.05,-10.67 -58.87,-34.3 z"
       fill="url(#linear-gradient-3)"
       id="path102"
       style="fill:url(#linear-gradient-3)" />
    <path
       d="m 174,187.64 67.19,-42.08 c 0,0 17.8,-8.91 28.17,9.33 10.37,18.24 32.17,74 32.17,74 0,0 6.55,29.87 -7,40.55 -13.55,10.68 -61.19,43 -61.19,43 0,0 -19.11,11.27 -30.72,-11.78 -11.61,-23.05 -38.14,-81.5 -38.14,-81.5 0,0 -8.31,-20.32 9.52,-31.52 z"
       fill="url(#linear-gradient-4)"
       id="path104"
       style="fill:url(#linearGradient1408)" />
    <path
       d="m 112.68,202.57 c 0,0 31.32,-5.45 49.88,30.43 18.56,35.88 33.06,67.64 33.06,67.64 0,0 13.23,28.18 -8.32,26.82 -21.55,-1.36 -43.89,-9.21 -53.5,-19.38 -9.61,-10.17 -14.56,-16.54 -18.8,-25.4 -4.24,-8.86 -26.74,-61.46 -26.74,-61.46 0,0 -9.57,-20.73 24.42,-18.65 z"
       fill="url(#linear-gradient-5)"
       id="path106"
       style="fill:url(#linear-gradient-5)" />
    <path
       d="m 193.94,168.16 42.7,-24.78 c 0,0 20.3,-11.61 -3.27,-11.29 -23.57,0.32 -45.34,4 -51.7,6.3 a 217,217 0 0 0 -25.19,11.73 c -6.32,3.61 -58.74,34.34 -58.74,34.34 0,0 -15.74,12.72 10.38,11.89 26.12,-0.83 44.31,-1.87 71.31,-18.66 z"
       fill="#ffffff"
       opacity="0.3"
       id="path108" />
    <path
       d="m 151.59,232.17 c 4.14,6.88 4.92,14 1.74,15.92 -3.18,1.92 -9.12,-2.11 -13.26,-9 -4.14,-6.89 -4.92,-14 -1.74,-15.92 3.18,-1.92 9.12,2.12 13.26,9 z"
       fill="url(#linear-gradient-6)"
       id="path110"
       style="fill:url(#linearGradient1410)" />
    <path
       d="m 143.4,282.77 c 4.14,6.87 4.92,14 1.74,15.92 -3.18,1.92 -9.12,-2.11 -13.26,-9 -4.14,-6.89 -4.92,-14 -1.74,-15.92 3.18,-1.92 9.12,2.12 13.26,9 z"
       fill="url(#linear-gradient-7)"
       id="path112"
       style="fill:url(#linear-gradient-7)" />
    <path
       d="m 213.43,215.53 c 0,8.3 -5.48,15 -12.23,15 -6.75,0 -12.23,-6.72 -12.23,-15 0,-8.28 5.47,-15 12.23,-15 6.76,0 12.23,6.7 12.23,15 z"
       fill="url(#linear-gradient-8)"
       id="path114"
       style="fill:url(#linear-gradient-8)" />
    <path
       d="m 261.25,184.29 c 0,8.29 -5.48,15 -12.23,15 -6.75,0 -12.23,-6.73 -12.23,-15 0,-8.27 5.47,-15 12.23,-15 6.76,0 12.23,6.71 12.23,15 z"
       fill="url(#linear-gradient-9)"
       id="path116"
       style="fill:url(#linear-gradient-9)" />
    <path
       d="m 226.53,244.31 c 0,8.29 -5.48,15 -12.23,15 -6.75,0 -12.23,-6.73 -12.23,-15 0,-8.27 5.47,-15 12.23,-15 6.76,0 12.23,6.69 12.23,15 z"
       fill="url(#linear-gradient-10)"
       id="path118"
       style="fill:url(#linear-gradient-10)" />
    <path
       d="m 273.48,212.67 c 0,8.3 -5.48,15 -12.23,15 -6.75,0 -12.25,-6.67 -12.25,-15 0,-8.33 5.47,-15 12.23,-15 6.76,0 12.25,6.71 12.25,15 z"
       fill="url(#linear-gradient-11)"
       id="path120"
       style="fill:url(#linear-gradient-11)" />
    <path
       d="m 286.64,241.36 c 0,8.29 -5.47,15 -12.23,15 -6.76,0 -12.23,-6.73 -12.23,-15 0,-8.27 5.48,-15 12.23,-15 6.75,0 12.23,6.7 12.23,15 z"
       fill="url(#linear-gradient-12)"
       id="path122"
       style="fill:url(#linear-gradient-12)" />
    <ellipse
       cx="227.45"
       cy="273.29999"
       rx="12.23"
       ry="15.02"
       fill="url(#linear-gradient-13)"
       id="ellipse124"
       style="fill:url(#linear-gradient-13)" />
    <path
       d="m 221.15,142.42 c 0.74,1.53 -4.78,5.72 -12.32,9.34 -7.54,3.62 -14.25,5.33 -15,3.8 -0.75,-1.53 4.78,-5.72 12.32,-9.34 7.54,-3.62 14.27,-5.33 15,-3.8 z"
       fill="url(#linear-gradient-14)"
       id="path126"
       style="fill:url(#linear-gradient-14)" />
    <path
       d="m 174.07,171.7 c 0.74,1.53 -4.77,5.71 -12.32,9.34 -7.55,3.63 -14.25,5.33 -15,3.79 -0.75,-1.54 4.78,-5.71 12.32,-9.34 7.54,-3.63 14.27,-5.33 15,-3.79 z"
       fill="url(#linear-gradient-15)"
       id="path128"
       style="fill:url(#linear-gradient-15)" />
    <path
       d="m 139.56,173.1 c 0.74,1.53 -4.78,5.71 -12.32,9.34 -7.54,3.63 -14.25,5.32 -15,3.79 -0.75,-1.53 4.78,-5.71 12.32,-9.34 7.54,-3.63 14.26,-5.33 15,-3.79 z"
       fill="url(#linear-gradient-16)"
       id="path130"
       style="fill:url(#linear-gradient-16)" />
    <path
       d="m 185.65,144.76 c 0.74,1.53 -4.78,5.71 -12.32,9.34 -7.54,3.63 -14.25,5.33 -15,3.79 -0.75,-1.54 4.78,-5.71 12.32,-9.34 7.54,-3.63 14.26,-5.32 15,-3.79 z"
       fill="url(#linear-gradient-17)"
       id="path132"
       style="fill:url(#linear-gradient-17)" />
    <path
       d="m 331.17,200.91 105.72,20.73 c 0,0 37.31,8.29 57.21,46.43 19.9,38.14 19.9,63 12.44,89.55 -7.46,26.55 -36.48,97.43 -36.48,97.43 0,0 -12.44,35.24 -51,25.29 l -99.91,-25.29 c 0,0 -30.27,-9.54 -47.68,-29 a 445.88,445.88 0 0 1 -29.85,-37.32 c 0,0 -15.76,-27.36 -3.73,-58 12.03,-30.64 43.94,-104.53 43.94,-104.53 0,0 17,-29.44 49.34,-25.29 z"
       fill="url(#linear-gradient-18)"
       id="path134"
       style="fill:url(#linear-gradient-18)" />
    <path
       d="M 333.66,207.13 434,227 c 0,0 30.68,6.63 19.48,39 -11.2,32.37 -39.38,102.81 -39.38,102.81 0,0 -13.68,32.34 -47.26,24.46 L 259,368 c 0,0 -25.7,-9.54 -15.34,-36.07 10.36,-26.53 41.88,-99.51 41.88,-99.51 0,0 12.46,-29.03 48.12,-25.29 z"
       fill="#ffffff"
       opacity="0.2"
       id="path136" />
    <path
       d="m 332,266.42 c -10.15,5.44 -21.9,3.26 -26.26,-4.87 -4.36,-8.13 0.34,-19.12 10.48,-24.56 10.14,-5.44 21.91,-3.26 26.27,4.86 4.36,8.12 -0.33,19.15 -10.49,24.57 z"
       fill="#ffffff"
       id="path138" />
    <path
       d="m 356.47,311.81 c -10.15,5.44 -21.91,3.26 -26.26,-4.87 -4.35,-8.13 0.33,-19.12 10.48,-24.57 10.15,-5.45 21.91,-3.26 26.27,4.87 4.36,8.13 -0.34,19.12 -10.49,24.57 z"
       fill="#ffffff"
       id="path140" />
    <path
       d="m 302.45,340.74 c -10.15,5.44 -21.91,3.26 -26.26,-4.87 -4.35,-8.13 0.33,-19.12 10.48,-24.56 10.15,-5.44 21.91,-3.27 26.27,4.86 4.36,8.13 -0.34,19.12 -10.49,24.57 z"
       fill="#ffffff"
       id="path142" />
    <path
       d="m 411.4,283.24 c -10.73,5.75 -23.17,3.45 -27.77,-5.15 -4.6,-8.6 0.35,-20.23 11.08,-26 10.73,-5.77 23.18,-3.45 27.79,5.15 4.61,8.6 -0.36,20.24 -11.1,26 z"
       fill="#ffffff"
       id="path144" />
    <path
       d="m 380.59,359.3 c -10.73,5.75 -23.17,3.45 -27.78,-5.15 -4.61,-8.6 0.36,-20.23 11.09,-26 10.73,-5.77 23.18,-3.45 27.78,5.14 4.6,8.59 -0.35,20.25 -11.09,26.01 z"
       fill="#ffffff"
       id="path146" />
    <path
       d="m 442.18,320 19.58,-52.33 c 0,0 9.78,-25.22 25.5,-2.71 15.72,22.51 24.57,48.82 20.83,70.27 a 204.59,204.59 0 0 1 -11.5,39.8 l -29.23,79.29 c 0,0 -8.7,20.21 -25.18,1.25 -16.48,-18.96 -31.1,-54.42 -21.77,-80.23 9.33,-25.81 21.77,-55.34 21.77,-55.34 z"
       fill="url(#linear-gradient-19)"
       id="path148"
       style="fill:url(#linear-gradient-19)" />
    <path
       d="M 314.56,389.54 366,402.4 c 0,0 37.72,11.19 56,39 18.28,27.81 13.63,39.38 2.26,37.31 C 412.89,476.64 320,452.56 320,452.56 c 0,0 -27.41,-9.12 -45.42,-29.85 -18.01,-20.73 -26.31,-33.17 -26.31,-33.17 0,0 -8.29,-15.75 13.68,-12 21.97,3.75 52.61,12 52.61,12 z"
       fill="url(#linear-gradient-20)"
       id="path150"
       style="fill:url(#linear-gradient-20)" />
    <path
       d="m 471.61,364 c -2.29,10.68 -7.27,18.66 -11.13,17.83 -3.86,-0.83 -5.14,-10.15 -2.86,-20.82 2.28,-10.67 7.27,-18.66 11.13,-17.83 3.86,0.83 5.14,10.11 2.86,20.82 z"
       fill="url(#linear-gradient-21)"
       id="path152"
       style="fill:url(#linear-gradient-21)" />
    <path
       d="m 387.21,426.77 c -1.21,2.91 -10.21,2 -20.11,-2.16 -9.9,-4.16 -17,-9.78 -15.76,-12.69 1.24,-2.91 10.21,-1.94 20.12,2.16 9.91,4.1 16.96,9.78 15.75,12.69 z"
       fill="url(#linear-gradient-22)"
       id="path154"
       style="fill:url(#linear-gradient-22)" />
    <path
       d="m 360.77,435.36 c -1.2,2.91 -10.21,1.94 -20.11,-2.16 -9.9,-4.1 -17,-9.79 -15.75,-12.7 1.25,-2.91 10.21,-1.94 20.11,2.16 9.9,4.1 16.98,9.79 15.75,12.7 z"
       fill="url(#linear-gradient-23)"
       id="path156"
       style="fill:url(#linear-gradient-23)" />
    <path
       d="m 336.48,444.46 c -1.2,2.91 -10.21,2 -20.11,-2.16 -9.9,-4.16 -17,-9.78 -15.75,-12.69 1.25,-2.91 10.2,-1.94 20.11,2.16 9.91,4.1 16.96,9.79 15.75,12.69 z"
       fill="url(#linear-gradient-24)"
       id="path158"
       style="fill:url(#linear-gradient-24)" />
    <path
       d="m 338.81,237.5 c 0,0 -11.11,-6.69 -25.52,1.42 -14.41,8.11 -9.57,27.62 3.18,30.11 0,0 -14.42,0.8 -14.89,-15.21 -0.47,-16.01 24.62,-27.57 37.23,-16.32 z"
       fill="#ed1c24"
       id="path160" />
    <path
       d="m 316.89,268.89 c 0,0 -11.47,-9.05 -7,-19.78 5.26,-12.52 23.82,-13.5 23.82,-13.5 0,0 -13.36,-5.1 -24.76,6.73 -11.4,11.83 -2.95,27.07 7.94,26.55 z"
       fill="#d1d3d4"
       id="path162" />
    <path
       d="m 419,252.8 c 0,0 -11.22,-7.09 -25.78,1.51 -14.56,8.6 -9.67,29.28 3.21,31.91 0,0 -14.57,0.86 -15,-16.12 -0.43,-16.98 24.8,-29.22 37.57,-17.3 z"
       fill="#ed1c24"
       id="path164" />
    <path
       d="m 396.83,286.08 c 0,0 -11.58,-9.59 -7,-21 5.31,-13.27 24.06,-14.31 24.06,-14.31 0,0 -13.49,-5.4 -25,7.13 -11.51,12.53 -3.07,28.74 7.94,28.18 z"
       fill="#d1d3d4"
       id="path166" />
    <path
       d="m 365.71,285 c 0,0 -10.52,-7.8 -25.8,-1.08 -15.28,6.72 -12.32,26.76 0.25,30.5 0,0 -14.58,-0.61 -13.48,-16.71 1.1,-16.1 27.45,-25.26 39.03,-12.71 z"
       fill="#ed1c24"
       id="path168" />
    <path
       d="m 340.6,314.3 c 0,0 -10.64,-10.2 -5.06,-20.52 6.51,-12 25.27,-11.2 25.27,-11.2 0,0 -12.94,-6.42 -25.55,4.32 -12.61,10.74 -5.67,26.85 5.34,27.4 z"
       fill="#d1d3d4"
       id="path170" />
    <path
       d="m 312,313.94 c 0,0 -10.52,-7.79 -25.8,-1.07 -15.28,6.72 -12.32,26.76 0.25,30.5 0,0 -14.57,-0.61 -13.48,-16.71 1.09,-16.1 27.47,-25.24 39.03,-12.72 z"
       fill="#ed1c24"
       id="path172" />
    <path
       d="m 286.91,343.27 c 0,0 -10.64,-10.2 -5.06,-20.51 6.51,-12.05 25.27,-11.21 25.27,-11.21 0,0 -12.93,-6.42 -25.55,4.32 -12.62,10.74 -5.66,26.86 5.34,27.4 z"
       fill="#d1d3d4"
       id="path174" />
    <path
       d="m 389.33,330.11 c 0,0 -10.46,-8.35 -25.8,-1 -15.34,7.35 -12.55,29 0,33 0,0 -14.59,-0.54 -13.37,-18 1.22,-17.46 27.68,-27.44 39.17,-14 z"
       fill="#ed1c24"
       id="path176" />
    <path
       d="m 364,362 c 0,0 -10.58,-10.94 -4.91,-22.13 6.61,-13.07 25.38,-12.31 25.38,-12.31 0,0 -12.9,-6.83 -25.61,4.87 -12.71,11.7 -5.86,29.06 5.14,29.57 z"
       fill="#d1d3d4"
       id="path178" />
  </g>
</svg>
